# xmcd CD database file
#
# Track frame offsets:
#	150
#	18602
#	33511
#	50655
#	69812
#	88603
#	105246
#	120849
#	137211
#	158161
#	176050
#	197454
#	216013
#	234853
#	263042
#
# Disc length: 4440 seconds
#
# Revision: 0
# Processed by: cddbd v1.5.1PL0 Copyright (c) Steve Scherf et al.
# Submitted via: CDex 1.51
#
DISCID=bd11560f
DTITLE=Faith Evans - The first lady
DYEAR=2005
DGENRE=Hip-Hop
TTITLE0=Goin' out - Featuring Pharrell and Pusha T
TTITLE1=Again
TTITLE2=I don't need it
TTITLE3=Stop n go
TTITLE4=Mesmerized
TTITLE5=Tru love
TTITLE6=Jealous
TTITLE7=Ever wonder - Featuring Mario Winans
TTITLE8=Catching feelings
TTITLE9=Get over you
TTITLE10=Until you game
TTITLE11=Lucky day
TTITLE12=Hope - Twista featuring Faith
TTITLE13=Do my thang
TTITLE14=Player
EXTD=YEAR: 2005
EXTT0=
EXTT1=
EXTT2=
EXTT3=
EXTT4=
EXTT5=
EXTT6=
EXTT7=
EXTT8=
EXTT9=
EXTT10=
EXTT11=
EXTT12=
EXTT13=
EXTT14=
PLAYORDER=
